<svg width="37" height="37" viewBox="0 0 37 37" fill="none" xmlns="http://www.w3.org/2000/svg">
<path d="M22.3252 6.40953C21.4601 5.54494 20.4709 4.83298 19.3851 4.29345C19.1106 4.15708 18.7777 4.26888 18.6412 4.5432C18.5048 4.81752 18.6166 5.15037 18.8911 5.28674C19.8691 5.77265 20.7605 6.4143 21.5403 7.1939C25.4837 11.1353 25.4837 17.5484 21.5403 21.4898C19.6301 23.3991 17.0903 24.4506 14.3889 24.4506C11.6873 24.4506 9.14754 23.3991 7.23732 21.4898C5.32703 19.5805 4.27504 17.042 4.27504 14.3418C4.27504 11.6417 5.32703 9.10316 7.23732 7.1939C8.38974 6.04206 9.75538 5.20804 11.2961 4.71497C12.7667 4.24445 14.3536 4.11603 15.8849 4.3436C16.1884 4.38876 16.4704 4.17955 16.5154 3.87655C16.5604 3.57354 16.3513 3.29141 16.0481 3.24639C14.3495 2.99396 12.5893 3.1364 10.9577 3.65852C9.27103 4.1982 7.71307 5.1495 6.45241 6.40953C4.33259 8.52828 3.16513 11.3453 3.16513 14.3418C3.16513 17.3383 4.33259 20.1554 6.45241 22.2741C8.5723 24.393 11.3908 25.5598 14.3888 25.5598C17.3866 25.5598 20.2052 24.393 22.3251 22.2741C26.7012 17.9002 26.7012 10.7834 22.3252 6.40953Z" fill="#E6C82A"/>
<path d="M36.1244 31.8918L26.4144 22.1869C28.1395 19.5324 28.941 16.3494 28.6759 13.1713C28.3946 9.79748 26.9191 6.61881 24.5213 4.22075C21.8003 1.49958 18.1923 0.000578125 14.3618 0C14.3609 0 14.3605 0 14.3596 0C10.53 0 6.92208 1.49792 4.201 4.21764C-1.40038 9.81627 -1.40031 18.9259 4.20107 24.5244C6.60027 26.9224 9.78091 28.3982 13.1572 28.68C16.3382 28.9453 19.5229 28.1446 22.1794 26.4198L31.8893 36.1247C32.4731 36.7083 33.2399 37 34.0068 37C34.7737 37 35.5405 36.7083 36.1244 36.1247C37.2919 34.9577 37.2919 33.0588 36.1244 31.8918ZM35.3396 35.3403C34.6046 36.0749 33.4088 36.0749 32.674 35.3403L22.6411 25.3125C22.5337 25.2052 22.3916 25.15 22.2486 25.15C22.1383 25.15 22.0273 25.1828 21.9313 25.2498C19.4121 27.0059 16.3296 27.8314 13.2496 27.5746C10.1345 27.3146 7.1998 25.9528 4.98598 23.7401C-0.182816 18.574 -0.182888 10.1681 4.98584 5.00201C7.49746 2.49165 10.8262 1.10928 14.3596 1.10928C14.3602 1.10928 14.361 1.10928 14.3617 1.10928C17.8956 1.10978 21.225 2.49331 23.7363 5.0049C25.9489 7.21767 27.3105 10.1506 27.57 13.2635C27.8262 16.3348 27.0034 19.4101 25.2534 21.925C24.8768 22.3906 23.8363 23.6363 23.3258 24.0786C23.0942 24.2793 23.0693 24.6296 23.2701 24.861C23.3798 24.9875 23.5343 25.0523 23.6896 25.0523C23.8184 25.0523 23.9479 25.0077 24.0529 24.9167C24.523 24.5092 25.2795 23.6303 25.7389 23.0804L35.3396 32.6762C36.0744 33.4106 36.0744 34.6058 35.3396 35.3403Z" fill="#E6C82A"/>
</svg>
