<svg width="37" height="37" viewBox="0 0 37 37" fill="none" xmlns="http://www.w3.org/2000/svg">
<path d="M31.5815 5.41848C28.0873 1.92436 23.4415 0 18.5 0C13.5585 0 8.91274 1.92436 5.41848 5.41848C1.92436 8.91266 0 13.5585 0 18.5C0 23.4415 1.92436 28.0873 5.41848 31.5815C8.91274 35.0756 13.5585 37 18.5 37C23.4415 37 28.0873 35.0756 31.5815 31.5815C35.0757 28.0874 37 23.4415 37 18.5C37 13.5585 35.0756 8.91266 31.5815 5.41848ZM18.5 35.916C8.89677 35.916 1.08398 28.1032 1.08398 18.5C1.08398 8.89677 8.89677 1.08398 18.5 1.08398C28.1032 1.08398 35.916 8.89677 35.916 18.5C35.916 28.1032 28.1032 35.916 18.5 35.916Z" fill="#E6C82A"/>
<path d="M30.0485 6.95152C26.9637 3.86679 22.8624 2.16797 18.5 2.16797C14.1375 2.16797 10.0363 3.86679 6.95152 6.95152C3.86679 10.0363 2.16797 14.1376 2.16797 18.5C2.16797 22.8624 3.86679 26.9637 6.95152 30.0485C10.0363 33.1332 14.1375 34.832 18.5 34.832C22.8624 34.832 26.9637 33.1332 30.0485 30.0485C33.1332 26.9637 34.832 22.8624 34.832 18.5C34.832 14.1376 33.1332 10.0363 30.0485 6.95152ZM18.5 33.748C10.0922 33.748 3.25195 26.9078 3.25195 18.5C3.25195 10.0922 10.0922 3.25195 18.5 3.25195C26.9078 3.25195 33.748 10.0922 33.748 18.5C33.748 26.9078 26.9078 33.748 18.5 33.748Z" fill="#E6C82A"/>
<path d="M28.435 11.7753C28.3443 11.6414 28.1986 11.5551 28.0378 11.5398C27.8769 11.5247 27.7175 11.5819 27.6032 11.6961L11.6963 27.6033C11.5819 27.7176 11.5246 27.877 11.54 28.0379C11.5552 28.1988 11.6416 28.3445 11.7753 28.4351C13.7636 29.7835 16.0889 30.4961 18.5 30.4961C25.1146 30.4961 30.4961 25.1147 30.4961 18.5C30.4961 16.0889 29.7834 13.7635 28.435 11.7753ZM18.5 29.4121C16.5282 29.4121 14.6198 28.8884 12.9408 27.8918L27.8917 12.9407C28.8883 14.6198 29.4121 16.5282 29.4121 18.5C29.4121 24.517 24.517 29.4121 18.5 29.4121Z" fill="#E6C82A"/>
<path d="M25.4601 8.96224C25.4448 8.8013 25.3585 8.65569 25.2247 8.56499C23.2365 7.21659 20.9111 6.50391 18.5 6.50391C15.7147 6.50391 13.0007 7.48021 10.858 9.25289C10.6274 9.44367 10.5951 9.78527 10.7859 10.016C10.9767 10.2465 11.3184 10.279 11.549 10.0881C13.4978 8.47582 15.9664 7.58789 18.5 7.58789C20.4718 7.58789 22.3802 8.11167 24.0593 9.10829L9.10829 24.0593C8.11167 22.3802 7.58789 20.4718 7.58789 18.5C7.58789 15.9663 8.47582 13.4977 10.0881 11.549C10.2788 11.3184 10.2465 10.9766 10.0159 10.7859C9.78527 10.5948 9.4436 10.6274 9.25282 10.8579C7.48014 13.0007 6.50391 15.7147 6.50391 18.5C6.50391 20.9111 7.21659 23.2365 8.56492 25.2247C8.65561 25.3586 8.8013 25.4449 8.96224 25.4602C8.97937 25.4618 8.99649 25.4626 9.01355 25.4626C9.15656 25.4626 9.29466 25.4059 9.39677 25.3039L25.3039 9.39684C25.4181 9.28245 25.4754 9.1231 25.4601 8.96224Z" fill="#E6C82A"/>
</svg>
