<svg width="38" height="38" viewBox="0 0 38 38" fill="none" xmlns="http://www.w3.org/2000/svg">
<path d="M2.53333 7.6C1.1362 7.6 0 6.4638 0 5.06667C0 3.66953 1.1362 2.53333 2.53333 2.53333C3.93047 2.53333 5.06667 3.66953 5.06667 5.06667C5.06667 6.4638 3.93047 7.6 2.53333 7.6ZM2.53333 3.8C1.83477 3.8 1.26667 4.3681 1.26667 5.06667C1.26667 5.76523 1.83477 6.33333 2.53333 6.33333C3.2319 6.33333 3.8 5.76523 3.8 5.06667C3.8 4.3681 3.2319 3.8 2.53333 3.8Z" fill="#E6C82A"/>
<path d="M12.0333 5.06667C10.6362 5.06667 9.5 3.93047 9.5 2.53333C9.5 1.1362 10.6362 0 12.0333 0C13.4305 0 14.5667 1.1362 14.5667 2.53333C14.5667 3.93047 13.4305 5.06667 12.0333 5.06667ZM12.0333 1.26667C11.3348 1.26667 10.7667 1.83477 10.7667 2.53333C10.7667 3.2319 11.3348 3.8 12.0333 3.8C12.7319 3.8 13.3 3.2319 13.3 2.53333C13.3 1.83477 12.7319 1.26667 12.0333 1.26667Z" fill="#E6C82A"/>
<path d="M35.4667 13.3C34.0695 13.3 32.9333 12.1638 32.9333 10.7667C32.9333 9.36953 34.0695 8.23333 35.4667 8.23333C36.8638 8.23333 38 9.36953 38 10.7667C38 12.1638 36.8638 13.3 35.4667 13.3ZM35.4667 9.5C34.7681 9.5 34.2 10.0681 34.2 10.7667C34.2 11.4652 34.7681 12.0333 35.4667 12.0333C36.1652 12.0333 36.7333 11.4652 36.7333 10.7667C36.7333 10.0681 36.1652 9.5 35.4667 9.5Z" fill="#E6C82A"/>
<path d="M27.2333 38C25.8362 38 24.7 36.8638 24.7 35.4667C24.7 34.0695 25.8362 32.9333 27.2333 32.9333C28.6305 32.9333 29.7667 34.0695 29.7667 35.4667C29.7667 36.8638 28.6305 38 27.2333 38ZM27.2333 34.2C26.5348 34.2 25.9667 34.7681 25.9667 35.4667C25.9667 36.1652 26.5348 36.7333 27.2333 36.7333C27.9319 36.7333 28.5 36.1652 28.5 35.4667C28.5 34.7681 27.9319 34.2 27.2333 34.2Z" fill="#E6C82A"/>
<path d="M35.4667 31.0333C34.0695 31.0333 32.9333 29.8971 32.9333 28.5C32.9333 27.1029 34.0695 25.9667 35.4667 25.9667C36.8638 25.9667 38 27.1029 38 28.5C38 29.8971 36.8638 31.0333 35.4667 31.0333ZM35.4667 27.2333C34.7681 27.2333 34.2 27.8014 34.2 28.5C34.2 29.1986 34.7681 29.7667 35.4667 29.7667C36.1652 29.7667 36.7333 29.1986 36.7333 28.5C36.7333 27.8014 36.1652 27.2333 35.4667 27.2333Z" fill="#E6C82A"/>
<path d="M8.23333 36.1C6.8362 36.1 5.7 34.9638 5.7 33.5667C5.7 32.1695 6.8362 31.0333 8.23333 31.0333C9.63047 31.0333 10.7667 32.1695 10.7667 33.5667C10.7667 34.9638 9.63047 36.1 8.23333 36.1ZM8.23333 32.3C7.53477 32.3 6.96667 32.8681 6.96667 33.5667C6.96667 34.2652 7.53477 34.8333 8.23333 34.8333C8.9319 34.8333 9.5 34.2652 9.5 33.5667C9.5 32.8681 8.9319 32.3 8.23333 32.3Z" fill="#E6C82A"/>
<path d="M2.53333 28.5C1.1362 28.5 0 27.3638 0 25.9667C0 24.5695 1.1362 23.4333 2.53333 23.4333C3.93047 23.4333 5.06667 24.5695 5.06667 25.9667C5.06667 27.3638 3.93047 28.5 2.53333 28.5ZM2.53333 24.7C1.83477 24.7 1.26667 25.2681 1.26667 25.9667C1.26667 26.6652 1.83477 27.2333 2.53333 27.2333C3.2319 27.2333 3.8 26.6652 3.8 25.9667C3.8 25.2681 3.2319 24.7 2.53333 24.7Z" fill="#E6C82A"/>
<path d="M29.1333 5.06667C27.7362 5.06667 26.6 3.93047 26.6 2.53333C26.6 1.1362 27.7362 0 29.1333 0C30.5305 0 31.6667 1.1362 31.6667 2.53333C31.6667 3.93047 30.5305 5.06667 29.1333 5.06667ZM29.1333 1.26667C28.4348 1.26667 27.8667 1.83477 27.8667 2.53333C27.8667 3.2319 28.4348 3.8 29.1333 3.8C29.8319 3.8 30.4 3.2319 30.4 2.53333C30.4 1.83477 29.8319 1.26667 29.1333 1.26667Z" fill="#E6C82A"/>
<path d="M19 30.4C12.7142 30.4 7.6 25.2858 7.6 19C7.6 12.7142 12.7142 7.6 19 7.6C25.2858 7.6 30.4 12.7142 30.4 19C30.4 25.2858 25.2858 30.4 19 30.4ZM19 8.86667C13.4121 8.86667 8.86667 13.4127 8.86667 19C8.86667 24.5873 13.4121 29.1333 19 29.1333C24.5873 29.1333 29.1333 24.5873 29.1333 19C29.1333 13.4127 24.5873 8.86667 19 8.86667Z" fill="#E6C82A"/>
<path d="M10.7667 12.6667H7.6C4.45677 12.6667 1.9 10.1093 1.9 6.96667C1.9 6.61707 2.18373 6.33333 2.53333 6.33333C2.88293 6.33333 3.16667 6.61707 3.16667 6.96667C3.16667 9.41133 5.15533 11.4 7.6 11.4H10.7667C11.1163 11.4 11.4 11.6837 11.4 12.0333C11.4 12.3829 11.1163 12.6667 10.7667 12.6667Z" fill="#E6C82A"/>
<path d="M15.2 34.2H10.1333C9.78373 34.2 9.5 33.9163 9.5 33.5667C9.5 33.2171 9.78373 32.9333 10.1333 32.9333H15.2C16.9461 32.9333 18.3667 31.5128 18.3667 29.7667C18.3667 29.4171 18.6504 29.1333 19 29.1333C19.3496 29.1333 19.6333 29.4171 19.6333 29.7667C19.6333 32.2113 17.6447 34.2 15.2 34.2Z" fill="#E6C82A"/>
<path d="M10.7667 26.6H4.43333C4.08373 26.6 3.8 26.3163 3.8 25.9667C3.8 25.6171 4.08373 25.3333 4.43333 25.3333H10.7667C11.1163 25.3333 11.4 25.6171 11.4 25.9667C11.4 26.3163 11.1163 26.6 10.7667 26.6Z" fill="#E6C82A"/>
<path d="M19 5.06667C18.6504 5.06667 18.3667 4.78293 18.3667 4.43333C18.3667 3.73477 17.7986 3.16667 17.1 3.16667H13.9333C13.5837 3.16667 13.3 2.88293 13.3 2.53333C13.3 2.18373 13.5837 1.9 13.9333 1.9H17.1C18.4971 1.9 19.6333 3.0362 19.6333 4.43333C19.6333 4.78293 19.3496 5.06667 19 5.06667Z" fill="#E6C82A"/>
<path d="M19 8.86667C18.6504 8.86667 18.3667 8.58293 18.3667 8.23333V4.43333C18.3667 4.08373 18.6504 3.8 19 3.8C19.3496 3.8 19.6333 4.08373 19.6333 4.43333L19.6333 8.23333C19.6333 8.58293 19.3496 8.86667 19 8.86667Z" fill="#E6C82A"/>
<path d="M24.0667 10.1333C23.7171 10.1333 23.4333 9.8496 23.4333 9.5C23.4333 8.10287 24.5695 6.96667 25.9667 6.96667H27.8667C28.2156 6.96667 28.5 6.6823 28.5 6.33333V4.43333C28.5 4.08373 28.7837 3.8 29.1333 3.8C29.4829 3.8 29.7667 4.08373 29.7667 4.43333V6.33333C29.7667 7.38087 28.9142 8.23333 27.8667 8.23333H25.9667C25.2681 8.23333 24.7 8.80143 24.7 9.5C24.7 9.8496 24.4163 10.1333 24.0667 10.1333Z" fill="#E6C82A"/>
<path d="M29.7667 19.6333C29.4171 19.6333 29.1333 19.3496 29.1333 19C29.1333 17.6029 30.2695 16.4667 31.6667 16.4667H34.2C34.549 16.4667 34.8333 16.1823 34.8333 15.8333V12.6667C34.8333 12.3171 35.1171 12.0333 35.4667 12.0333C35.8163 12.0333 36.1 12.3171 36.1 12.6667V15.8333C36.1 16.8809 35.2475 17.7333 34.2 17.7333H31.6667C30.9681 17.7333 30.4 18.3014 30.4 19C30.4 19.3496 30.1163 19.6333 29.7667 19.6333Z" fill="#E6C82A"/>
<path d="M35.4667 27.2333C35.1171 27.2333 34.8333 26.9496 34.8333 26.6V24.7C34.8333 24.351 34.549 24.0667 34.2 24.0667H31.0333C29.7166 24.0667 28.8325 23.0489 28.8325 21.5333C28.8325 21.1837 29.1162 20.9 29.4658 20.9C29.8154 20.9 30.0992 21.1837 30.0992 21.5333C30.0992 21.9146 30.1904 22.8 31.0333 22.8H34.2C35.2475 22.8 36.1 23.6525 36.1 24.7V26.6C36.1 26.9496 35.8163 27.2333 35.4667 27.2333Z" fill="#E6C82A"/>
<path d="M27.2333 32.3C26.8837 32.3 26.6 32.0163 26.6 31.6667C26.6 31.3177 26.3156 31.0333 25.9667 31.0333C24.5695 31.0333 23.4333 29.8971 23.4333 28.5C23.4333 28.1504 23.7171 27.8667 24.0667 27.8667C24.4163 27.8667 24.7 28.1504 24.7 28.5C24.7 29.1986 25.2681 29.7667 25.9667 29.7667C27.0142 29.7667 27.8667 30.6191 27.8667 31.6667C27.8667 32.0163 27.5829 32.3 27.2333 32.3Z" fill="#E6C82A"/>
<path d="M27.2333 34.2C26.8837 34.2 26.6 33.9163 26.6 33.5667L26.6 31.6667C26.6 31.3171 26.8837 31.0333 27.2333 31.0333C27.5829 31.0333 27.8667 31.3171 27.8667 31.6667V33.5667C27.8667 33.9163 27.5829 34.2 27.2333 34.2Z" fill="#E6C82A"/>
<path d="M24.0667 25.9667H13.9333C13.5837 25.9667 13.3 25.6829 13.3 25.3333V17.7333C13.3 17.3837 13.5837 17.1 13.9333 17.1H24.0667C24.4163 17.1 24.7 17.3837 24.7 17.7333V25.3333C24.7 25.6829 24.4163 25.9667 24.0667 25.9667ZM14.5667 24.7H23.4333V18.3667H14.5667V24.7Z" fill="#E6C82A"/>
<path d="M20.9 23.4333H17.1C16.7504 23.4333 16.4667 23.1496 16.4667 22.8V20.2667C16.4667 19.9171 16.7504 19.6333 17.1 19.6333H20.9C21.2496 19.6333 21.5333 19.9171 21.5333 20.2667V22.8C21.5333 23.1496 21.2496 23.4333 20.9 23.4333ZM17.7333 22.1667H20.2667V20.9H17.7333V22.1667Z" fill="#E6C82A"/>
<path d="M22.8 18.3667H15.2C14.8504 18.3667 14.5667 18.0829 14.5667 17.7333V15.2C14.5667 12.7553 16.5553 10.7667 19 10.7667C21.4447 10.7667 23.4333 12.7553 23.4333 15.2V17.7333C23.4333 18.0829 23.1496 18.3667 22.8 18.3667ZM15.8333 17.1H22.1667V15.2C22.1667 13.4539 20.7461 12.0333 19 12.0333C17.2539 12.0333 15.8333 13.4539 15.8333 15.2V17.1Z" fill="#E6C82A"/>
<path d="M20.2667 18.3667H17.7333C17.3837 18.3667 17.1 18.0829 17.1 17.7333V15.2C17.1 14.1525 17.9525 13.3 19 13.3C20.0475 13.3 20.9 14.1525 20.9 15.2V17.7333C20.9 18.0829 20.6163 18.3667 20.2667 18.3667ZM18.3667 17.1H19.6333V15.2C19.6333 14.851 19.3496 14.5667 19 14.5667C18.6504 14.5667 18.3667 14.851 18.3667 15.2V17.1Z" fill="#E6C82A"/>
</svg>
