<svg width="6" height="11" viewBox="0 0 6 11" fill="none" xmlns="http://www.w3.org/2000/svg">
<path d="M1.76967 5.91774C1.73304 5.91774 0.927303 5.91774 0.561059 5.91774C0.365728 5.91774 0.304688 5.84465 0.304688 5.66191C0.304688 5.1746 0.304688 4.67511 0.304688 4.1878C0.304688 3.99287 0.377936 3.93196 0.561059 3.93196H1.76967C1.76967 3.89541 1.76967 3.18882 1.76967 2.85988C1.76967 2.37257 1.85512 1.90963 2.09929 1.48324C2.35566 1.04466 2.7219 0.752273 3.18581 0.581715C3.49102 0.472071 3.79622 0.42334 4.12584 0.42334H5.32224C5.49315 0.42334 5.5664 0.496436 5.5664 0.666994V2.05582C5.5664 2.22638 5.49315 2.29948 5.32224 2.29948C4.99262 2.29948 4.663 2.29948 4.33338 2.31166C4.00376 2.31166 3.83284 2.47004 3.83284 2.81115C3.82064 3.17663 3.83284 3.52993 3.83284 3.9076H5.24899C5.44432 3.9076 5.51757 3.98069 5.51757 4.17562V5.64972C5.51757 5.84465 5.45653 5.90556 5.24899 5.90556C4.8095 5.90556 3.86947 5.90556 3.83284 5.90556V9.87712C3.83284 10.0842 3.7718 10.1573 3.55206 10.1573C3.03931 10.1573 2.53878 10.1573 2.02604 10.1573C1.84291 10.1573 1.76967 10.0842 1.76967 9.90149C1.76967 8.62231 1.76967 5.95429 1.76967 5.91774V5.91774Z" fill="#8E8E8E"/>
</svg>
