<svg width="11" height="10" viewBox="0 0 11 10" fill="none" xmlns="http://www.w3.org/2000/svg">
<path d="M10.2047 9.73636V9.73599H10.2072V6.44926C10.2072 4.84137 9.82452 3.60278 7.74664 3.60278C6.74774 3.60278 6.0774 4.09867 5.80373 4.56879H5.77484V3.75289H3.80469V9.73599H5.85615V6.77338C5.85615 5.99333 6.01961 5.23905 7.08745 5.23905C8.1396 5.23905 8.15528 6.12925 8.15528 6.82342V9.73636H10.2047Z" fill="#8E8E8E"/>
<path d="M0.475586 3.60278H2.52442V9.73636H0.475586V3.60278Z" fill="#8E8E8E"/>
<path d="M1.62805 0.791504C0.991836 0.791504 0.475586 1.30427 0.475586 1.93619C0.475586 2.56811 0.991836 3.09159 1.62805 3.09159C2.26427 3.09159 2.78052 2.56811 2.78052 1.93619C2.78012 1.30427 2.26387 0.791504 1.62805 0.791504V0.791504Z" fill="#8E8E8E"/>
</svg>
