<svg width="16" height="16" viewBox="0 0 16 16" fill="none" xmlns="http://www.w3.org/2000/svg">
<path d="M7.19999 7.20001H8.80001V12H7.19999V7.20001Z" fill="#676767"/>
<path d="M8.00002 0C12.42 0 16 3.58002 16 8C16 12.42 12.42 16 8.00002 16C3.58005 16 -1.27147e-07 12.42 -1.27147e-07 8C-1.27147e-07 3.57998 3.58001 0 8.00002 0ZM8.00002 14.4C11.528 14.4 14.4 11.528 14.4 8C14.4 4.47199 11.528 1.60002 8.00002 1.60002C4.47202 1.60002 1.60001 4.47199 1.60001 8C1.60001 11.528 4.47202 14.4 8.00002 14.4Z" fill="#676767"/>
<path d="M7.19999 4.00002H8.80001V5.60003H7.19999V4.00002Z" fill="#676767"/>
</svg>
