<svg width="12" height="12" viewBox="0 0 12 12" fill="none" xmlns="http://www.w3.org/2000/svg">
<path d="M6.55975 11.0988C6.523 11.0988 6.48624 11.0988 6.44924 11.0987C5.57923 11.1008 4.77536 11.0787 3.99359 11.0311C3.27685 10.9875 2.62261 10.7398 2.10148 10.3149C1.59865 9.90488 1.25527 9.3505 1.08091 8.66732C0.929162 8.07254 0.921118 7.48869 0.913412 6.92398C0.907823 6.51879 0.902064 6.03867 0.900879 5.55042C0.902064 5.06014 0.907823 4.58001 0.913412 4.17483C0.921118 3.6102 0.929162 3.02635 1.08091 2.43149C1.25527 1.74831 1.59865 1.19392 2.10148 0.783915C2.62261 0.359002 3.27685 0.11132 3.99367 0.067711C4.77544 0.0202068 5.57948 -0.00197872 6.45136 0.000138218C7.32162 -0.00172469 8.12524 0.0202068 8.90701 0.067711C9.62375 0.11132 10.278 0.359002 10.7991 0.783915C11.302 1.19392 11.6453 1.74831 11.8197 2.43149C11.9714 3.02626 11.9795 3.6102 11.9872 4.17483C11.9928 4.58001 11.9986 5.06014 11.9997 5.54839V5.55042C11.9986 6.03867 11.9928 6.51879 11.9872 6.92398C11.9795 7.48861 11.9715 8.07246 11.8197 8.66732C11.6453 9.3505 11.302 9.90488 10.7991 10.3149C10.278 10.7398 9.62375 10.9875 8.90701 11.0311C8.15835 11.0767 7.38928 11.0988 6.55975 11.0988ZM6.44924 10.2316C7.30511 10.2336 8.09094 10.212 8.85434 10.1656C9.3963 10.1327 9.86619 9.95679 10.2511 9.64289C10.607 9.3527 10.852 8.95235 10.9795 8.45292C11.1058 7.95781 11.1131 7.4262 11.1201 6.91212C11.1256 6.50965 11.1314 6.03291 11.1326 5.5494C11.1314 5.06581 11.1256 4.58916 11.1201 4.18669C11.1131 3.67261 11.1058 3.141 10.9795 2.64581C10.852 2.14638 10.607 1.74602 10.2511 1.45583C9.86619 1.14202 9.3963 0.966141 8.85434 0.933201C8.09094 0.886713 7.30511 0.86529 6.45127 0.867153C5.59557 0.86512 4.80965 0.886713 4.04626 0.933201C3.5043 0.966141 3.03441 1.14202 2.64945 1.45583C2.29362 1.74602 2.04856 2.14638 1.92111 2.64581C1.79477 3.141 1.78749 3.67252 1.78046 4.18669C1.77495 4.5895 1.76919 5.06649 1.76801 5.55042C1.76919 6.03224 1.77495 6.50931 1.78046 6.91212C1.78749 7.4262 1.79477 7.95781 1.92111 8.45292C2.04856 8.95235 2.29362 9.3527 2.64945 9.64289C3.03441 9.95671 3.5043 10.1326 4.04626 10.1655C4.80965 10.212 5.59574 10.2337 6.44924 10.2316ZM6.42858 8.25909C4.93447 8.25909 3.7188 7.04354 3.7188 5.5494C3.7188 4.05527 4.93447 2.83972 6.42858 2.83972C7.92277 2.83972 9.13836 4.05527 9.13836 5.5494C9.13836 7.04354 7.92277 8.25909 6.42858 8.25909ZM6.42858 3.70682C5.41258 3.70682 4.58593 4.53344 4.58593 5.5494C4.58593 6.56537 5.41258 7.39199 6.42858 7.39199C7.44466 7.39199 8.27123 6.56537 8.27123 5.5494C8.27123 4.53344 7.44466 3.70682 6.42858 3.70682ZM9.44185 1.97262C9.08272 1.97262 8.79151 2.26374 8.79151 2.62294C8.79151 2.98215 9.08272 3.27327 9.44185 3.27327C9.80107 3.27327 10.0922 2.98215 10.0922 2.62294C10.0922 2.26374 9.80107 1.97262 9.44185 1.97262Z" fill="#8E8E8E"/>
</svg>
