<svg width="56" height="56" viewBox="0 0 56 56" fill="none" xmlns="http://www.w3.org/2000/svg">
<path d="M28 0C12.535 0 0 12.535 0 28C0 43.465 12.535 56 28 56C43.465 56 56 43.465 56 28C56 12.535 43.465 0 28 0ZM28 52.4671C14.4841 52.4671 3.53291 41.5117 3.53291 28C3.53291 14.4883 14.4883 3.53291 28 3.53291C41.5117 3.53291 52.4671 14.4883 52.4671 28C52.4671 41.5117 41.5117 52.4671 28 52.4671Z" fill="black"/>
<path d="M9.16648 24.1863C9.53899 24.1863 9.88157 24.2833 10.1942 24.4773C10.5069 24.6647 10.7563 24.9223 10.9426 25.2501C11.1288 25.5712 11.2219 25.9359 11.2219 26.344C11.2219 26.7454 11.1288 27.1134 10.9426 27.4479C10.7563 27.7758 10.5069 28.0367 10.1942 28.2307C9.88157 28.4248 9.53899 28.5218 9.16648 28.5218H7.40038V31.2114H6.32275V24.1863H9.16648ZM9.14652 27.4781C9.32613 27.4781 9.4891 27.4279 9.63545 27.3275C9.78179 27.2205 9.8982 27.0833 9.98468 26.916C10.0778 26.7421 10.1244 26.5514 10.1244 26.344C10.1244 26.0295 10.0279 25.7653 9.83501 25.5512C9.6421 25.3371 9.4126 25.23 9.14652 25.23H7.40038V27.4781H9.14652Z" fill="black"/>
<path d="M21.9861 27.6988C21.9861 28.2073 21.9029 28.6824 21.7366 29.1239C21.5703 29.5588 21.3309 29.9402 21.0182 30.268C20.7122 30.5959 20.3497 30.8534 19.9306 31.0408C19.5182 31.2214 19.0625 31.3117 18.5636 31.3117C18.0647 31.3117 17.6058 31.2214 17.1867 31.0408C16.7676 30.8534 16.4051 30.5959 16.0991 30.268C15.7931 29.9402 15.5569 29.5588 15.3906 29.1239C15.2243 28.6824 15.1412 28.2073 15.1412 27.6988C15.1412 27.1904 15.2243 26.7187 15.3906 26.2838C15.5569 25.8422 15.7931 25.4575 16.0991 25.1297C16.4051 24.8018 16.7676 24.5476 17.1867 24.3669C17.6058 24.1796 18.0647 24.0859 18.5636 24.0859C19.0625 24.0859 19.5182 24.1796 19.9306 24.3669C20.3497 24.5476 20.7122 24.8018 21.0182 25.1297C21.3309 25.4575 21.5703 25.8422 21.7366 26.2838C21.9029 26.7187 21.9861 27.1904 21.9861 27.6988ZM20.8885 27.6988C20.8885 27.2104 20.7887 26.7755 20.5892 26.3942C20.3896 26.0061 20.1136 25.7017 19.761 25.4809C19.4151 25.2534 19.016 25.1397 18.5636 25.1397C18.1047 25.1397 17.6989 25.2534 17.3463 25.4809C17.0004 25.7017 16.7277 26.0061 16.5281 26.3942C16.3352 26.7755 16.2388 27.2104 16.2388 27.6988C16.2388 28.1873 16.3352 28.6255 16.5281 29.0135C16.7277 29.3949 17.0004 29.6993 17.3463 29.9268C17.6989 30.1476 18.1047 30.258 18.5636 30.258C19.016 30.258 19.4151 30.1476 19.761 29.9268C20.1136 29.6993 20.3896 29.3916 20.5892 29.0035C20.7887 28.6154 20.8885 28.1806 20.8885 27.6988Z" fill="black"/>
<path d="M29.3656 31.2114H26.0329V30.2078H27.1605V25.1899H26.0329V24.1863H29.3656V25.1899H28.2381V30.2078H29.3656V31.2114Z" fill="black"/>
<path d="M38.9299 24.1863H40.0075V31.2114H39.0197L34.9586 25.8522C34.9986 26.2604 35.0351 26.6685 35.0684 27.0766C35.1083 27.4781 35.1283 27.8828 35.1283 28.291V31.2114H34.0506V24.1863H35.0185L39.0795 29.6558C39.0197 29.1674 38.9798 28.6422 38.9598 28.0802C38.9399 27.5115 38.9299 26.983 38.9299 26.4945V24.1863Z" fill="black"/>
<path d="M46.2833 31.2114V25.23H44.3277V24.1863H49.3765V25.23H47.361V31.2114H46.2833Z" fill="black"/>
</svg>
