<svg width="38" height="38" viewBox="0 0 38 38" fill="none" xmlns="http://www.w3.org/2000/svg">
<path d="M25.2676 18.257L17.377 12.5204C17.0874 12.3104 16.703 12.2788 16.3856 12.442C16.0657 12.6039 15.8659 12.9327 15.8659 13.288V24.7575C15.8659 25.1167 16.0657 25.4442 16.3856 25.6061C16.5209 25.6744 16.6689 25.7085 16.8181 25.7085C17.0128 25.7085 17.2101 25.6466 17.377 25.5239L25.2676 19.7923C25.5167 19.6089 25.6621 19.3257 25.6621 19.0247C25.6634 18.7186 25.5142 18.4366 25.2676 18.257Z" fill="url(#paint0_linear)"/>
<path d="M19.0006 0C8.50514 0 0 8.50627 0 19.0032C0 29.4963 8.50514 38 19.0006 38C29.4936 38 38 29.495 38 19.0032C38.0013 8.50627 29.4936 0 19.0006 0ZM19.0006 34.8294C10.2603 34.8294 3.17394 27.7459 3.17394 19.0032C3.17394 10.2642 10.2603 3.17183 19.0006 3.17183C27.7397 3.17183 34.8248 10.2629 34.8248 19.0032C34.8261 27.7459 27.7397 34.8294 19.0006 34.8294Z" fill="url(#paint1_linear)"/>
<defs>
<linearGradient id="paint0_linear" x1="19" y1="0" x2="19" y2="38" gradientUnits="userSpaceOnUse">
<stop stop-color="white"/>
<stop offset="1" stop-color="white"/>
</linearGradient>
<linearGradient id="paint1_linear" x1="19" y1="0" x2="19" y2="38" gradientUnits="userSpaceOnUse">
<stop stop-color="white"/>
<stop offset="1" stop-color="white"/>
</linearGradient>
</defs>
</svg>
