<svg width="11" height="10" viewBox="0 0 11 10" fill="none" xmlns="http://www.w3.org/2000/svg">
<path d="M10.1337 1.99314C9.75688 2.16753 9.35533 2.28312 8.93668 2.33924C9.36736 2.06797 9.69607 1.64169 9.85061 1.12787C9.44906 1.38044 9.00571 1.55884 8.53323 1.65839C8.15195 1.2301 7.60853 0.964844 7.0157 0.964844C5.86553 0.964844 4.93956 1.94971 4.93956 3.15707C4.93956 3.33079 4.95349 3.49783 4.98769 3.65685C3.26053 3.56799 1.73223 2.6947 0.70556 1.3644C0.52632 1.69247 0.421183 2.06797 0.421183 2.47221C0.421183 3.23123 0.791697 3.90407 1.34398 4.2936C1.01021 4.28692 0.68276 4.1847 0.405349 4.02367C0.405349 4.03035 0.405349 4.03904 0.405349 4.04772C0.405349 5.11277 1.12548 5.99741 2.06981 6.20119C1.90071 6.24997 1.7164 6.27336 1.52513 6.27336C1.39212 6.27336 1.25785 6.26534 1.13181 6.23594C1.40099 7.10388 2.16482 7.74197 3.07305 7.76268C2.36622 8.34598 1.46876 8.69743 0.497186 8.69743C0.326813 8.69743 0.163406 8.68941 0 8.66736C0.920269 9.29343 2.01091 9.65089 3.18706 9.65089C7.01 9.65089 9.10008 6.3101 9.10008 3.41431C9.10008 3.31743 9.09692 3.22388 9.09248 3.13101C9.5048 2.82232 9.85125 2.43679 10.1337 1.99314Z" fill="#8E8E8E"/>
</svg>
