<svg width="13" height="10" viewBox="0 0 13 10" fill="none" xmlns="http://www.w3.org/2000/svg">
<path d="M6.57543 9.65089C6.57446 9.65089 6.5734 9.65089 6.57234 9.65089C6.22288 9.64842 3.1335 9.61916 2.25821 9.37349C1.6465 9.20282 1.16362 8.70221 0.998742 8.06725C0.769715 7.17488 0.784295 5.4568 0.785885 5.31961C0.784383 5.18306 0.769627 3.45076 0.998035 2.55105C0.9983 2.55023 0.998477 2.54931 0.998742 2.54849C1.16176 1.92077 1.65551 1.40466 2.25671 1.23354C2.25821 1.23308 2.2598 1.23271 2.2613 1.23225C3.12669 0.996207 6.22217 0.96732 6.57234 0.964844H6.57861C6.92896 0.96732 10.0266 0.996573 10.8938 1.24262C11.5039 1.41282 11.9865 1.91279 12.1518 2.54693C12.3894 3.44728 12.3674 5.18333 12.365 5.32988C12.3667 5.47422 12.3805 7.17689 12.1528 8.07376C12.1527 8.07468 12.1524 8.0755 12.1522 8.07633C11.9872 8.71129 11.5045 9.2119 10.892 9.38275C10.8912 9.38302 10.8904 9.38321 10.8896 9.38348C10.0243 9.61944 6.92869 9.64832 6.57861 9.65089C6.57755 9.65089 6.57649 9.65089 6.57543 9.65089ZM1.87261 2.79187C1.67151 3.58603 1.6905 5.29622 1.69068 5.31346V5.32584C1.68467 5.80014 1.70579 7.17368 1.8727 7.82423C1.95364 8.13575 2.19177 8.38253 2.49378 8.46681C3.13959 8.64811 5.65579 8.70515 6.57543 8.71184C7.49746 8.70515 10.0174 8.64966 10.6584 8.47561C10.9595 8.39106 11.1968 8.14511 11.2783 7.83322C11.4453 7.17313 11.4663 5.80628 11.4602 5.33501C11.4602 5.33006 11.4602 5.32511 11.4603 5.32016C11.4686 4.84018 11.4522 3.45058 11.2791 2.7948C11.2789 2.79416 11.2787 2.79352 11.2786 2.79288C11.1973 2.47998 10.9591 2.23321 10.6571 2.14893C10.0175 1.96745 7.49728 1.91059 6.57543 1.9039C5.65403 1.91059 3.13659 1.96598 2.4936 2.13985C2.19733 2.22514 1.95381 2.48072 1.87261 2.79187ZM5.42226 7.20936V3.40629L8.58905 5.30787L5.42226 7.20936Z" fill="#8E8E8E"/>
</svg>
